<mxfile host="app.diagrams.net" modified="2021-12-12T10:55:46.652Z" agent="5.0 (Windows NT 10.0; Win64; x64) AppleWebKit/537.36 (KHTML, like Gecko) Chrome/96.0.4664.93 Safari/537.36" etag="C2FH2C_9SQkVF7B879K8" version="15.9.4" type="github">
  <diagram name="Page-1" id="74e2e168-ea6b-b213-b513-2b3c1d86103e">
    <mxGraphModel dx="1038" dy="-226" grid="1" gridSize="10" guides="1" tooltips="1" connect="1" arrows="1" fold="1" page="1" pageScale="1" pageWidth="1100" pageHeight="850" background="none" math="0" shadow="0">
      <root>
        <mxCell id="0" />
        <mxCell id="1" parent="0" />
        <mxCell id="7xhAEBTV9nR6lo730mzW-8" value="" style="group" vertex="1" connectable="0" parent="1">
          <mxGeometry x="165" y="979" width="155" height="77" as="geometry" />
        </mxCell>
        <mxCell id="7xhAEBTV9nR6lo730mzW-4" value="&lt;font style=&quot;font-size: 14px&quot;&gt;Gse Agent&lt;br&gt;&lt;br&gt;&lt;br&gt;&lt;/font&gt;" style="rounded=1;whiteSpace=wrap;html=1;fontSize=14;fillColor=#dae8fc;strokeColor=#6c8ebf;align=left;" vertex="1" parent="7xhAEBTV9nR6lo730mzW-8">
          <mxGeometry width="140.9090909090909" height="55" as="geometry" />
        </mxCell>
        <mxCell id="7xhAEBTV9nR6lo730mzW-5" value="&lt;font style=&quot;font-size: 14px&quot;&gt;bkunifylogbeat&lt;/font&gt;" style="rounded=1;whiteSpace=wrap;html=1;fontSize=14;fillColor=#dae8fc;strokeColor=#6c8ebf;align=center;" vertex="1" parent="7xhAEBTV9nR6lo730mzW-8">
          <mxGeometry x="14.09090909090909" y="22" width="140.9090909090909" height="55" as="geometry" />
        </mxCell>
        <mxCell id="7xhAEBTV9nR6lo730mzW-9" value="" style="group" vertex="1" connectable="0" parent="1">
          <mxGeometry x="165" y="1080" width="155" height="77" as="geometry" />
        </mxCell>
        <mxCell id="7xhAEBTV9nR6lo730mzW-10" value="&lt;font style=&quot;font-size: 14px&quot;&gt;Gse Agent&lt;br&gt;&lt;br&gt;&lt;br&gt;&lt;/font&gt;" style="rounded=1;whiteSpace=wrap;html=1;fontSize=14;fillColor=#dae8fc;strokeColor=#6c8ebf;align=left;" vertex="1" parent="7xhAEBTV9nR6lo730mzW-9">
          <mxGeometry width="140.9090909090909" height="55" as="geometry" />
        </mxCell>
        <mxCell id="7xhAEBTV9nR6lo730mzW-11" value="&lt;font style=&quot;font-size: 14px&quot;&gt;Gse Cmdline&lt;/font&gt;" style="rounded=1;whiteSpace=wrap;html=1;fontSize=14;fillColor=#dae8fc;strokeColor=#6c8ebf;align=center;" vertex="1" parent="7xhAEBTV9nR6lo730mzW-9">
          <mxGeometry x="14.09090909090909" y="22" width="140.9090909090909" height="55" as="geometry" />
        </mxCell>
        <mxCell id="7xhAEBTV9nR6lo730mzW-15" value="Gse Data Server" style="rounded=1;whiteSpace=wrap;html=1;fontSize=14;fillColor=#dae8fc;strokeColor=#6c8ebf;" vertex="1" parent="1">
          <mxGeometry x="440" y="1042" width="120" height="60" as="geometry" />
        </mxCell>
      </root>
    </mxGraphModel>
  </diagram>
</mxfile>
